<svg xmlns="http://www.w3.org/2000/svg" viewBox="0 0 441.67 491.82"><defs><style>.a,.b,.e,.f,.g,.h,.i,.j,.k,.l,.m{fill:none;}.a,.b,.c,.d,.e,.f,.g,.h,.i,.j,.k,.l,.m{stroke:#000;stroke-linecap:round;stroke-linejoin:round;}.a{stroke-width:23px;}.b{stroke-width:21px;}.c{stroke-width:20px;}.d,.f{stroke-width:12px;}.e{stroke-width:8px;}.g{stroke-width:11px;}.h{stroke-width:10px;}.i{stroke-width:17px;}.j{stroke-width:13px;}.k{stroke-width:14px;}.l{stroke-width:16px;}.m{stroke-width:9px;}</style></defs><path class="a" d="M101,455.16s129.15,56.6,243.94,0l40.66-147.38c-3.94-1.57-9.74-3.81-16.83-6.25-13.77-4.73-49.13-16-109.56-20.66-38.84-3-69.68-5.42-110.9,1.22a371.21,371.21,0,0,0-88,25.69Z"/><path class="b" d="M60.3,307.78S6.37,293.65,10.75,239.84,53,167.69,66.56,162.91c0,0-16.74-68.17,66.57-65.38,0,0-12.76-41.05,35.07-57.39,0,0,14-3.07,27.51-22.72,0,0-17.38,39.56,19.93,40.65,32.63,1,9.16-46.24,9.16-46.24s75.74-14.74,81.32,53.82c0,0,64.57-4.39,63.38,64.17,0,0,71.26,5.86,60.59,97.66-8,68.56-44.53,80.3-44.53,80.3"/><path class="b" d="M66.56,162.91S112.8,139,201.29,169.68s160.63-13.15,168.21-39.86"/><path class="b" d="M306.12,65.65s-2.39,29.89-61.78,45.84-67-14.75-111.21-14"/><path class="c" d="M259.56,401.32c0,16.86-9.41,33.72-35.29,33.72-26.28,0-38-11.37-38-33.72Z"/><path class="d" d="M127.5,357.38s17-21.61,51.16-10.95c0,0-1.29-34.51-28.74-32.15S127.5,357.38,127.5,357.38Z"/><path class="d" d="M318.29,357.38s-17-21.61-51.15-10.95c0,0,1.28-34.51,28.73-32.15S318.29,357.38,318.29,357.38Z"/><path class="e" d="M72.9,194.55a45,45,0,0,0-9.11,17.89c-1.15-12.77,3.37-23,10.44-25.45a12,12,0,0,1,7-.11A44.28,44.28,0,0,0,72.9,194.55Z"/><path class="f" d="M72.13,239.83s6,9.7-11.23,22.61"/><path class="g" d="M155.51,235.19c-6.62,7.22-17.2,9-26.2,6.36-11-3.21-12.41-12.76-13-14.11,3.62,1.54,6.19,3,10.79,4.24C138.49,234.68,147.9,235.69,155.51,235.19Z"/><path class="h" d="M218.67,206.32c-.64-9.22-22-10.11-22-10.11-18.66-8.66-24,6.67-24,6.67.78,8.67,12.17-2,21.78-1.44C205.09,202.07,218,209.88,218.67,206.32Z"/><path class="g" d="M237.68,255.38a85.71,85.71,0,0,0,4.66-16.14c1.25-8.34,13.68-24.36,24.51-11.44C266.85,227.8,256.93,226.88,237.68,255.38Z"/><path class="i" d="M304.6,201.1s4.08,8.5-2.29,20.67"/><path class="g" d="M347.23,210.27S338,217,344,235.21"/><path class="j" d="M359.32,262.92s14.47,6.74,25.37-11.53"/><path class="f" d="M379.23,168.27s19.52,3.88,14.74,30.44"/><path class="j" d="M330,72.85c1.34,12-5.25,9.66-4.21,20"/><path class="f" d="M300.34,137.2s-1.93,9.23,22.05,3.35"/><path class="k" d="M264.35,135s-11,7.25-2,18.33"/><path class="f" d="M218,146.21c-.22-.42-3.52-6.66-10-7.11a11.49,11.49,0,0,0-6.45,1.56,3.62,3.62,0,0,0-1.61,4.28c.73,1.62,3.32,2.46,5.39,1.05"/><path class="g" d="M164.56,127s-7.36,5.17-3.83,13.75"/><path class="k" d="M125.73,116.57s-2.83,8.08-18,14.3"/><path class="j" d="M182.78,69.79s-6.67-2.14-9.41,9.63"/><path class="f" d="M205.15,88s-1.19,7.1,14.08,4.75"/><path class="l" d="M252.06,72.85S255.68,73,255,83.6"/><path class="h" d="M280,65.22c.36,3.43,3.72,6.59,5,6.27s-.95-5.61-.28-15.44A9.7,9.7,0,0,0,280,65.22Z"/><path class="m" d="M273.77,25.67s1,4.58-8,9"/></svg>